<svg xmlns="http://www.w3.org/2000/svg" width="394" height="103" viewBox="0 0 394 103" version="1.1"><path d="M 230.500 16.270 C 221.686 19.897, 214.316 26.771, 210.855 34.594 C 206.444 44.566, 206.567 57.473, 211.175 68.184 C 213.886 74.487, 223.237 83.211, 229.608 85.382 C 236.310 87.666, 245.710 87.455, 252.631 84.865 C 259.087 82.449, 266.268 76.355, 269.025 70.952 L 270.881 67.314 267.406 65.657 C 265.496 64.746, 263.610 64.010, 263.216 64.022 C 262.822 64.034, 261.179 66.013, 259.564 68.419 C 253.811 76.992, 244.250 80.534, 234.705 77.628 C 228.120 75.624, 223.983 72.206, 220.474 65.870 C 217.761 60.971, 217.500 59.667, 217.500 51 C 217.500 42.379, 217.769 41.014, 220.411 36.246 C 228.656 21.366, 246.134 19.116, 257.946 31.412 C 260.854 34.440, 262.065 35, 265.696 35 L 270 35 270 30.500 C 270 26.583, 269.726 26, 267.882 26 C 266.717 26, 264.230 24.653, 262.354 23.006 C 256.046 17.467, 251.273 15.669, 242 15.339 C 236.846 15.155, 232.319 15.522, 230.500 16.270 M 332.365 17.977 C 325.124 21.549, 319.773 27.121, 316.135 34.880 C 313.812 39.834, 313.500 41.745, 313.500 51 C 313.500 60.464, 313.785 62.116, 316.385 67.747 C 319.812 75.167, 325.904 81.151, 333.634 84.690 C 338.379 86.862, 340.221 87.152, 347.309 86.840 C 353.283 86.577, 356.770 85.857, 360.193 84.178 C 385.896 71.574, 386.038 30.508, 360.423 17.928 C 356.618 16.059, 353.570 15.447, 347 15.231 C 339.257 14.977, 337.953 15.221, 332.365 17.977 M 14 20 C 14 23.905, 14.083 24, 17.500 24 L 21 24 21 51 L 21 78 17.500 78 C 14.083 78, 14 78.095, 14 82 L 14 86 25.500 86 L 37 86 37 82 C 37 78.095, 36.917 78, 33.500 78 L 30 78 30 66 L 30 54 42.060 54 L 54.121 54 53.810 50.250 L 53.500 46.500 41.750 46.218 L 30 45.937 30 34.968 L 30 24 42.500 24 L 55 24 55 30 L 55 36 59.500 36 L 64 36 64 26 L 64 16 39 16 L 14 16 14 20 M 70 20 C 70 23.905, 70.083 24, 73.500 24 L 77 24 77.006 43.750 C 77.012 65.246, 77.478 68.209, 81.974 75.298 C 92.648 92.128, 117.286 90.341, 126.282 72.084 L 129.500 65.553 129.806 44.777 L 130.112 24 133.056 24 C 135.824 24, 136 23.761, 136 20 L 136 16 125 16 L 114 16 114 20 C 114 23.905, 114.083 24, 117.500 24 L 121 24 120.994 43.250 C 120.991 54.014, 120.508 64.263, 119.899 66.500 C 117.823 74.116, 112.036 78.003, 102.782 77.996 C 96.361 77.992, 92.231 75.719, 88.895 70.353 C 86.596 66.655, 86.487 65.647, 86.179 45.250 L 85.858 24 89.429 24 C 92.929 24, 93 23.920, 93 20 L 93 16 81.500 16 L 70 16 70 20 M 143 19.922 C 143 23.916, 143.072 24, 146.500 24 L 150 24 150 51 L 150 78 146.500 78 C 143.083 78, 143 78.095, 143 82 L 143 86 154.500 86 L 166 86 166 82 C 166 78.095, 165.917 78, 162.500 78 L 159 78 159 66 L 159 54 165.777 54 C 176.694 54, 178.269 55.900, 182.603 74.304 L 185.357 86 192.179 86 L 199 86 199 81.500 C 199 77.180, 198.882 77, 196.039 77 C 192.858 77, 193.302 77.893, 189.828 64.500 C 188.507 59.409, 186.516 55.559, 183.984 53.200 C 182.005 51.356, 182.018 51.323, 185.718 48.921 C 196.787 41.734, 196.486 25.897, 185.154 19.236 C 180.599 16.558, 180.103 16.493, 161.750 16.172 L 143 15.844 143 19.922 M 280 20 C 280 23.905, 280.083 24, 283.500 24 L 287 24 287 51 L 287 78 283.500 78 C 280.083 78, 280 78.095, 280 82 L 280 86 291.500 86 L 303 86 303 82 C 303 78.095, 302.917 78, 299.500 78 L 296 78 296 51 L 296 24 299.500 24 C 302.917 24, 303 23.905, 303 20 L 303 16 291.500 16 L 280 16 280 20 M 340.095 24.175 C 336.853 24.914, 334.327 26.543, 330.522 30.348 C 326.199 34.671, 325.055 36.616, 323.536 42.231 C 320.562 53.215, 322.733 63.986, 329.301 70.838 C 335.728 77.543, 344.252 80.057, 352.295 77.621 C 362.736 74.458, 368.993 65.848, 369.773 53.567 C 370.318 44.982, 369.004 39.715, 364.736 33.385 C 359.505 25.624, 349.744 21.976, 340.095 24.175 M 159 35 L 159 46 167.032 46 C 179.906 46, 184 43.346, 184 35 C 184 26.654, 179.906 24, 167.032 24 L 159 24 159 35" stroke="none" fill="#f7e7a9" fill-rule="evenodd"/><path d="M 0 51.502 L 0 103.005 197.250 102.752 L 394.500 102.500 394.759 51.250 L 395.018 0 197.509 0 L 0 0 0 51.502 M 0.465 52 C 0.465 80.325, 0.593 91.913, 0.749 77.750 C 0.906 63.588, 0.906 40.413, 0.749 26.250 C 0.593 12.088, 0.465 23.675, 0.465 52 M 230.500 16.270 C 221.686 19.897, 214.316 26.771, 210.855 34.594 C 206.444 44.566, 206.567 57.473, 211.175 68.184 C 213.886 74.487, 223.237 83.211, 229.608 85.382 C 236.310 87.666, 245.710 87.455, 252.631 84.865 C 259.087 82.449, 266.268 76.355, 269.025 70.952 L 270.881 67.314 267.406 65.657 C 265.496 64.746, 263.610 64.010, 263.216 64.022 C 262.822 64.034, 261.179 66.013, 259.564 68.419 C 253.811 76.992, 244.250 80.534, 234.705 77.628 C 228.120 75.624, 223.983 72.206, 220.474 65.870 C 217.761 60.971, 217.500 59.667, 217.500 51 C 217.500 42.379, 217.769 41.014, 220.411 36.246 C 228.656 21.366, 246.134 19.116, 257.946 31.412 C 260.854 34.440, 262.065 35, 265.696 35 L 270 35 270 30.500 C 270 26.583, 269.726 26, 267.882 26 C 266.717 26, 264.230 24.653, 262.354 23.006 C 256.046 17.467, 251.273 15.669, 242 15.339 C 236.846 15.155, 232.319 15.522, 230.500 16.270 M 332.365 17.977 C 325.124 21.549, 319.773 27.121, 316.135 34.880 C 313.812 39.834, 313.500 41.745, 313.500 51 C 313.500 60.464, 313.785 62.116, 316.385 67.747 C 319.812 75.167, 325.904 81.151, 333.634 84.690 C 338.379 86.862, 340.221 87.152, 347.309 86.840 C 353.283 86.577, 356.770 85.857, 360.193 84.178 C 385.896 71.574, 386.038 30.508, 360.423 17.928 C 356.618 16.059, 353.570 15.447, 347 15.231 C 339.257 14.977, 337.953 15.221, 332.365 17.977 M 14 20 C 14 23.905, 14.083 24, 17.500 24 L 21 24 21 51 L 21 78 17.500 78 C 14.083 78, 14 78.095, 14 82 L 14 86 25.500 86 L 37 86 37 82 C 37 78.095, 36.917 78, 33.500 78 L 30 78 30 66 L 30 54 42.060 54 L 54.121 54 53.810 50.250 L 53.500 46.500 41.750 46.218 L 30 45.937 30 34.968 L 30 24 42.500 24 L 55 24 55 30 L 55 36 59.500 36 L 64 36 64 26 L 64 16 39 16 L 14 16 14 20 M 70 20 C 70 23.905, 70.083 24, 73.500 24 L 77 24 77.006 43.750 C 77.012 65.246, 77.478 68.209, 81.974 75.298 C 92.648 92.128, 117.286 90.341, 126.282 72.084 L 129.500 65.553 129.806 44.777 L 130.112 24 133.056 24 C 135.824 24, 136 23.761, 136 20 L 136 16 125 16 L 114 16 114 20 C 114 23.905, 114.083 24, 117.500 24 L 121 24 120.994 43.250 C 120.991 54.014, 120.508 64.263, 119.899 66.500 C 117.823 74.116, 112.036 78.003, 102.782 77.996 C 96.361 77.992, 92.231 75.719, 88.895 70.353 C 86.596 66.655, 86.487 65.647, 86.179 45.250 L 85.858 24 89.429 24 C 92.929 24, 93 23.920, 93 20 L 93 16 81.500 16 L 70 16 70 20 M 143 19.922 C 143 23.916, 143.072 24, 146.500 24 L 150 24 150 51 L 150 78 146.500 78 C 143.083 78, 143 78.095, 143 82 L 143 86 154.500 86 L 166 86 166 82 C 166 78.095, 165.917 78, 162.500 78 L 159 78 159 66 L 159 54 165.777 54 C 176.694 54, 178.269 55.900, 182.603 74.304 L 185.357 86 192.179 86 L 199 86 199 81.500 C 199 77.180, 198.882 77, 196.039 77 C 192.858 77, 193.302 77.893, 189.828 64.500 C 188.507 59.409, 186.516 55.559, 183.984 53.200 C 182.005 51.356, 182.018 51.323, 185.718 48.921 C 196.787 41.734, 196.486 25.897, 185.154 19.236 C 180.599 16.558, 180.103 16.493, 161.750 16.172 L 143 15.844 143 19.922 M 280 20 C 280 23.905, 280.083 24, 283.500 24 L 287 24 287 51 L 287 78 283.500 78 C 280.083 78, 280 78.095, 280 82 L 280 86 291.500 86 L 303 86 303 82 C 303 78.095, 302.917 78, 299.500 78 L 296 78 296 51 L 296 24 299.500 24 C 302.917 24, 303 23.905, 303 20 L 303 16 291.500 16 L 280 16 280 20 M 340.095 24.175 C 336.853 24.914, 334.327 26.543, 330.522 30.348 C 326.199 34.671, 325.055 36.616, 323.536 42.231 C 320.562 53.215, 322.733 63.986, 329.301 70.838 C 335.728 77.543, 344.252 80.057, 352.295 77.621 C 362.736 74.458, 368.993 65.848, 369.773 53.567 C 370.318 44.982, 369.004 39.715, 364.736 33.385 C 359.505 25.624, 349.744 21.976, 340.095 24.175 M 159 35 L 159 46 167.032 46 C 179.906 46, 184 43.346, 184 35 C 184 26.654, 179.906 24, 167.032 24 L 159 24 159 35" stroke="none" fill="#444444" fill-rule="evenodd"/></svg>